<?xml version="1.0" encoding="utf-8"?>
<!-- Generator: Adobe Illustrator 28.0.0, SVG Export Plug-In . SVG Version: 6.00 Build 0)  -->
<svg version="1.1" id="Layer_1" xmlns="http://www.w3.org/2000/svg" xmlns:xlink="http://www.w3.org/1999/xlink" x="0px" y="0px"
	 viewBox="0 0 557.29 259.73" style="enable-background:new 0 0 557.29 259.73;" xml:space="preserve">
<style type="text/css">
	.st0{fill:#1E0A3C;}
	.st1{fill:#C04999;}
	.st2{fill:#494849;}
	.st3{font-family:'MyriadPro-Regular';}
	.st4{font-size:12px;}
	.st5{letter-spacing:27;}
	.st6{letter-spacing:25;}
	.st7{letter-spacing:26;}
	.st8{fill:#72296B;}
	.st9{fill:#FFFAFF;}
	.st10{fill:url(#SVGID_1_);}
	.st11{fill:url(#SVGID_00000109746244189560654750000000700986563102994818_);}
	.st12{fill:url(#SVGID_00000171705510469035379720000002074130311303675319_);}
	.st13{fill:url(#SVGID_00000050648538289595590840000001799517046880668556_);}
	.st14{fill:url(#SVGID_00000179639558834521377980000015044809249307234202_);}
	.st15{fill:url(#SVGID_00000060714260782887242850000003724896821278037148_);}
	.st16{fill:url(#SVGID_00000098922399949452263770000000504101026320554161_);}
	.st17{fill:url(#SVGID_00000085221768135054408150000010543023438696619657_);}
	.st18{fill:url(#SVGID_00000176039605200493670980000016800099028499949453_);}
	.st19{fill:url(#SVGID_00000109709684054731438110000006830628385867747995_);}
	.st20{fill:url(#SVGID_00000111151497861177098410000008897592392902804121_);}
	.st21{fill:url(#SVGID_00000018208842808559646930000015302260906198028463_);}
	.st22{fill:url(#SVGID_00000163785335254861662940000015528251450409312905_);}
	.st23{fill:url(#SVGID_00000067232516232334524500000000411221701453748892_);}
	.st24{fill:url(#SVGID_00000080924843539558694950000011335948041310730375_);}
	.st25{fill:url(#SVGID_00000121983015134763366350000012098095129823026612_);}
	.st26{fill:url(#SVGID_00000064335339812977834190000016387415809742705316_);}
	.st27{fill:url(#SVGID_00000175313751789781963960000012327789079822556810_);}
	.st28{fill:url(#SVGID_00000000921581709929808360000002723244093760823214_);}
	.st29{fill:url(#SVGID_00000150075640510123953640000017909049780103155878_);}
	.st30{fill:url(#SVGID_00000124139688716064557700000013396493894736993471_);}
	.st31{fill:url(#SVGID_00000141452220484226908390000006084722774686677181_);}
</style>
<path class="st8" d="M58.17,151.71h-8.63c-12.34,0-22.35-10.01-22.35-22.35v-8.63c0-12.34,10.01-22.35,22.35-22.35h8.63
	c12.34,0,22.35,10.01,22.35,22.35v8.63C80.52,141.7,70.51,151.71,58.17,151.71z"/>
<path class="st8" d="M68.13,151.71H39.57c-6.84,0-12.38-5.54-12.38-12.38v-28.57c0-6.84,5.54-12.38,12.38-12.38h28.57
	c6.84,0,12.38,5.54,12.38,12.38v28.57C80.52,146.17,74.97,151.71,68.13,151.71z"/>
<g>
	<path class="st9" d="M46.51,110.63c0.81,0,1.63,0,2.44,0c0.22,0,0.34,0.08,0.43,0.29c1.04,2.47,2.09,4.93,3.14,7.4
		c1.03,2.42,2.05,4.85,3.09,7.27c0.49,1.13,0.94,2.3,1.55,3.37c1.11,1.97,2.79,3.31,4.92,4.05c1.84,0.64,3.7,0.68,5.57,0.15
		c1.38-0.39,2.59-1.07,3.65-2.03c0.34-0.3,0.34-0.31,0.65,0.01c1.14,1.14,2.27,2.28,3.42,3.41c0.16,0.16,0.17,0.27,0,0.43
		c-1.66,1.59-3.58,2.76-5.79,3.43c-3.33,1.02-6.65,0.94-9.93-0.2c-2.2-0.77-3.98-2.16-5.44-3.97c-1.03-1.27-1.86-2.66-2.6-4.12
		c-1.02-2.02-1.82-4.12-2.69-6.2c-0.8-1.91-1.58-3.82-2.37-5.73c-0.03-0.08-0.1-0.14-0.16-0.2c-0.06,0.07-0.13,0.12-0.17,0.2
		c-0.97,2.37-1.94,4.74-2.91,7.11c-0.69,1.7-1.38,3.41-2.07,5.11c-0.92,2.25-1.84,4.5-2.76,6.74c-0.01,0.02-0.01,0.03-0.02,0.05
		c-0.36,0.89-0.17,0.75-1.12,0.75c-1.62,0.01-3.24,0-4.86,0c-0.34,0-0.38-0.07-0.25-0.37c1.68-3.95,3.37-7.9,5.05-11.85
		c1.31-3.08,2.62-6.15,3.93-9.23c0.78-1.83,1.56-3.65,2.33-5.48c0.12-0.29,0.28-0.4,0.6-0.39
		C44.96,110.64,45.74,110.63,46.51,110.63z"/>
	<path class="st9" d="M56.35,121.31c-0.12-0.24-0.22-0.41-0.3-0.59c-0.8-1.79-1.58-3.58-2.39-5.37c-0.12-0.26-0.07-0.44,0.11-0.65
		c1.75-2.03,3.87-3.52,6.41-4.41c2.52-0.88,5.09-1.06,7.71-0.57c2.87,0.54,5.35,1.82,7.46,3.83c0.18,0.17,0.2,0.28,0.02,0.47
		c-1.16,1.14-2.3,2.3-3.46,3.45c-0.27,0.27-0.27,0.26-0.56,0.01c-3-2.57-6.36-3.15-10-1.63c-2.39,1-4.01,2.82-4.92,5.25
		C56.43,121.15,56.41,121.18,56.35,121.31z"/>
</g>
<g>
	<path class="st9" d="M46.51,110.63c0.81,0,1.63,0,2.44,0c0.22,0,0.34,0.08,0.43,0.29c1.04,2.47,2.09,4.93,3.14,7.4
		c1.03,2.42,2.05,4.85,3.09,7.27c0.49,1.13,0.94,2.3,1.55,3.37c1.11,1.97,2.79,3.31,4.92,4.05c1.84,0.64,3.7,0.68,5.57,0.15
		c1.38-0.39,2.59-1.07,3.65-2.03c0.34-0.3,0.34-0.31,0.65,0.01c1.14,1.14,2.27,2.28,3.42,3.41c0.16,0.16,0.17,0.27,0,0.43
		c-1.66,1.59-3.58,2.76-5.79,3.43c-3.33,1.02-6.65,0.94-9.93-0.2c-2.2-0.77-3.98-2.16-5.44-3.97c-1.03-1.27-1.86-2.66-2.6-4.12
		c-1.02-2.02-1.82-4.12-2.69-6.2c-0.8-1.91-1.58-3.82-2.37-5.73c-0.03-0.08-0.1-0.14-0.16-0.2c-0.06,0.07-0.13,0.12-0.17,0.2
		c-0.97,2.37-1.94,4.74-2.91,7.11c-0.69,1.7-1.38,3.41-2.07,5.11c-0.92,2.25-1.84,4.5-2.76,6.74c-0.01,0.02-0.01,0.03-0.02,0.05
		c-0.36,0.89-0.17,0.75-1.12,0.75c-1.62,0.01-3.24,0-4.86,0c-0.34,0-0.38-0.07-0.25-0.37c1.68-3.95,3.37-7.9,5.05-11.85
		c1.31-3.08,2.62-6.15,3.93-9.23c0.78-1.83,1.56-3.65,2.33-5.48c0.12-0.29,0.28-0.4,0.6-0.39
		C44.96,110.64,45.74,110.63,46.51,110.63z"/>
	<path class="st9" d="M56.35,121.31c-0.12-0.24-0.22-0.41-0.3-0.59c-0.8-1.79-1.58-3.58-2.39-5.37c-0.12-0.26-0.07-0.44,0.11-0.65
		c1.75-2.03,3.87-3.52,6.41-4.41c2.52-0.88,5.09-1.06,7.71-0.57c2.87,0.54,5.35,1.82,7.46,3.83c0.18,0.17,0.2,0.28,0.02,0.47
		c-1.16,1.14-2.3,2.3-3.46,3.45c-0.27,0.27-0.27,0.26-0.56,0.01c-3-2.57-6.36-3.15-10-1.63c-2.39,1-4.01,2.82-4.92,5.25
		C56.43,121.15,56.41,121.18,56.35,121.31z"/>
</g>
<g>
	<g>
		<g>
			<linearGradient id="SVGID_1_" gradientUnits="userSpaceOnUse" x1="100.5124" y1="123.973" x2="288.7766" y2="123.973">
				<stop  offset="0.6675" style="stop-color:#CB4E99"/>
				<stop  offset="0.7463" style="stop-color:#D36DAB"/>
				<stop  offset="0.918" style="stop-color:#E8BDD9"/>
				<stop  offset="1" style="stop-color:#F3E5F0"/>
			</linearGradient>
			<path class="st10" d="M132.79,115.66c0-1.76,0.25-3.41,0.74-4.97c0.25-0.9,0.58-1.67,1.01-2.3c0.43-0.63,0.87-1.22,1.32-1.75
				c1.27-1.47,2.78-2.61,4.54-3.43c1.76-0.82,3.64-1.23,5.64-1.23h16.25c0.41,0,0.61,0.2,0.61,0.61v6.74c0,0.41-0.2,0.61-0.61,0.61
				H146.4c-1.59,0.33-2.78,1.16-3.56,2.48c-0.78,1.33-1.16,3.06-1.16,5.18v15.51c0.12,1.43,0.58,2.57,1.38,3.4
				c0.8,0.84,1.91,1.32,3.34,1.44h15.88c0.41,0,0.61,0.21,0.61,0.61v6.75c0,0.41-0.2,0.61-0.61,0.61h-15.7
				c-1.23,0-2.31-0.11-3.25-0.34c-0.94-0.22-1.76-0.48-2.45-0.77c-1.55-0.57-2.94-1.5-4.17-2.79c-1.23-1.29-2.23-2.83-3-4.63
				c-0.21-0.45-0.41-1.05-0.61-1.81c-0.2-0.76-0.31-1.69-0.31-2.79V115.66z"/>
			
				<linearGradient id="SVGID_00000116957556450905565830000009797118923385318322_" gradientUnits="userSpaceOnUse" x1="167.9237" y1="123.973" x2="201.4648" y2="123.973">
				<stop  offset="0" style="stop-color:#282560"/>
				<stop  offset="0.3355" style="stop-color:#362B70"/>
				<stop  offset="0.4892" style="stop-color:#7D3C83"/>
				<stop  offset="0.6675" style="stop-color:#CB4E99"/>
				<stop  offset="0.746" style="stop-color:#D36DAB"/>
				<stop  offset="0.9169" style="stop-color:#E8BDD9"/>
				<stop  offset="0.9985" style="stop-color:#F3E5F0"/>
			</linearGradient>
			<path style="fill:url(#SVGID_00000116957556450905565830000009797118923385318322_);" d="M167.92,102.6
				c0-0.41,0.2-0.61,0.61-0.61h7.66c0.41,0,0.61,0.2,0.61,0.61v16.68c0,0.41,0.2,0.61,0.61,0.61h14.53c0.41,0,0.61-0.2,0.61-0.61
				V102.6c0-0.41,0.2-0.61,0.61-0.61h7.66c0.41,0,0.61,0.2,0.61,0.61v42.74c0,0.41-0.2,0.61-0.61,0.61h-7.66
				c-0.41,0-0.61-0.2-0.61-0.61v-16.86c0-0.41-0.2-0.61-0.61-0.61h-14.53c-0.41,0-0.61,0.21-0.61,0.61v16.86
				c0,0.41-0.2,0.61-0.61,0.61h-7.66c-0.41,0-0.61-0.2-0.61-0.61V102.6z"/>
			
				<linearGradient id="SVGID_00000054233683567135348480000002804014018540273797_" gradientUnits="userSpaceOnUse" x1="223.7832" y1="123.973" x2="254.1976" y2="123.973">
				<stop  offset="0" style="stop-color:#282560"/>
				<stop  offset="0.3355" style="stop-color:#362B70"/>
				<stop  offset="0.4892" style="stop-color:#7D3C83"/>
				<stop  offset="0.6675" style="stop-color:#CB4E99"/>
				<stop  offset="0.746" style="stop-color:#D36DAB"/>
				<stop  offset="0.9169" style="stop-color:#E8BDD9"/>
				<stop  offset="0.9985" style="stop-color:#F3E5F0"/>
			</linearGradient>
			<path style="fill:url(#SVGID_00000054233683567135348480000002804014018540273797_);" d="M223.78,111.37
				c0-2.78,0.76-5.04,2.27-6.78c1.51-1.74,3.7-2.61,6.56-2.61h20.79c0.53,0,0.8,0.2,0.8,0.61v6.74c0,0.41-0.21,0.61-0.61,0.61
				h-20.29c-0.41,0-0.61,0.23-0.61,0.67v8.34c0,0.41,0.2,0.61,0.61,0.61h18.82c0.41,0,0.61,0.21,0.61,0.61v7.05
				c0,0.41-0.2,0.61-0.61,0.61h-18.82c-0.41,0-0.61,0.21-0.61,0.61v8.89c0,0.41,0.2,0.61,0.61,0.61h20.29
				c0.41,0,0.61,0.21,0.61,0.61v6.75c0,0.41-0.21,0.61-0.61,0.61h-23.73c-0.74,0-1.47-0.19-2.21-0.58c-0.74-0.39-1.39-0.89-1.96-1.5
				c-0.57-0.61-1.03-1.3-1.38-2.05c-0.35-0.76-0.52-1.52-0.52-2.3V111.37z"/>
			
				<linearGradient id="SVGID_00000124154378534326820210000002434202330848744361_" gradientUnits="userSpaceOnUse" x1="257.998" y1="123.973" x2="299.0202" y2="123.973">
				<stop  offset="0" style="stop-color:#282560"/>
				<stop  offset="0.3355" style="stop-color:#362B70"/>
				<stop  offset="0.4892" style="stop-color:#7D3C83"/>
				<stop  offset="0.6675" style="stop-color:#CB4E99"/>
				<stop  offset="0.746" style="stop-color:#D36DAB"/>
				<stop  offset="0.9169" style="stop-color:#E8BDD9"/>
				<stop  offset="0.9985" style="stop-color:#F3E5F0"/>
			</linearGradient>
			<path style="fill:url(#SVGID_00000124154378534326820210000002434202330848744361_);" d="M277.8,136.88
				c0.12,0.45,0.22,0.75,0.31,0.89c0.08,0.14,0.22,0.21,0.43,0.21c0.2,0,0.43-0.37,0.67-1.1l10.55-34.28
				c0.12-0.41,0.39-0.61,0.8-0.61h7.97c0.33,0,0.49,0.12,0.49,0.37l-12.45,39.98c-0.49,1.59-1.39,2.6-2.7,3.01
				c-1.31,0.41-3.09,0.61-5.33,0.61c-2.33,0-4.16-0.2-5.49-0.61c-1.33-0.41-2.24-1.41-2.73-3.01L258,102.36
				c0-0.25,0.14-0.37,0.43-0.37h8.03c0.41,0,0.67,0.18,0.8,0.55L277.8,136.88z"/>
			
				<linearGradient id="SVGID_00000006680511850721989030000002676237254590345663_" gradientUnits="userSpaceOnUse" x1="293.0102" y1="123.973" x2="334.0323" y2="123.973">
				<stop  offset="0" style="stop-color:#282560"/>
				<stop  offset="0.3355" style="stop-color:#362B70"/>
				<stop  offset="0.4892" style="stop-color:#7D3C83"/>
				<stop  offset="0.6675" style="stop-color:#CB4E99"/>
				<stop  offset="0.746" style="stop-color:#D36DAB"/>
				<stop  offset="0.9169" style="stop-color:#E8BDD9"/>
				<stop  offset="0.9985" style="stop-color:#F3E5F0"/>
			</linearGradient>
			<path style="fill:url(#SVGID_00000006680511850721989030000002676237254590345663_);" d="M305.46,105.61
				c0.49-1.59,1.39-2.59,2.7-3c1.31-0.41,3.09-0.61,5.33-0.61c2.33,0,4.16,0.2,5.49,0.61c1.33,0.41,2.24,1.41,2.73,3l12.33,39.98
				c0,0.24-0.14,0.37-0.43,0.37h-8.03c-0.41,0-0.67-0.18-0.8-0.55l-3.25-10.61c-0.12-0.41-0.39-0.61-0.8-0.61h-14.41
				c-0.41,0-0.67,0.22-0.8,0.67l-3.25,10.49c-0.12,0.41-0.39,0.61-0.8,0.61h-7.97c-0.33,0-0.49-0.12-0.49-0.37L305.46,105.61z
				 M314.23,111.07c-0.12-0.45-0.22-0.74-0.31-0.89c-0.08-0.14-0.22-0.22-0.43-0.22s-0.43,0.37-0.67,1.1l-4.29,13.98
				c0,0.08-0.01,0.14-0.03,0.18c-0.02,0.04-0.03,0.08-0.03,0.12c0,0.29,0.16,0.43,0.49,0.43h9.14c0.33,0,0.49-0.14,0.49-0.43
				c0-0.04-0.01-0.08-0.03-0.12c-0.02-0.04-0.03-0.1-0.03-0.18L314.23,111.07z"/>
		</g>
		<g>
			
				<linearGradient id="SVGID_00000083808379628573859500000012594364598993166218_" gradientUnits="userSpaceOnUse" x1="89.603" y1="123.9725" x2="130.6247" y2="123.9725">
				<stop  offset="0" style="stop-color:#282560"/>
				<stop  offset="0.2458" style="stop-color:#693577"/>
				<stop  offset="0.5332" style="stop-color:#AF478F"/>
				<stop  offset="0.6675" style="stop-color:#CB4E99"/>
				<stop  offset="0.746" style="stop-color:#D36DAB"/>
				<stop  offset="0.9169" style="stop-color:#E8BDD9"/>
				<stop  offset="0.9985" style="stop-color:#F3E5F0"/>
			</linearGradient>
			<path style="fill:url(#SVGID_00000083808379628573859500000012594364598993166218_);" d="M118.3,105.61
				c-0.49-1.59-1.4-2.6-2.73-3c-1.33-0.41-3.16-0.61-5.49-0.61c-2.25,0-4.03,0.21-5.33,0.61c-1.31,0.41-2.21,1.41-2.7,3L89.6,145.59
				c0,0.25,0.16,0.37,0.49,0.37h7.97c0.41,0,0.67-0.2,0.8-0.61l10.55-34.28c0.25-0.74,0.47-1.1,0.67-1.1c0.2,0,0.35,0.07,0.43,0.22
				c0.08,0.14,0.18,0.44,0.31,0.89l10.55,34.34c0.12,0.37,0.39,0.55,0.8,0.55h8.03c0.29,0,0.43-0.12,0.43-0.37L118.3,105.61z"/>
		</g>
		<g>
			
				<linearGradient id="SVGID_00000025439769833657205450000000360812523866585249_" gradientUnits="userSpaceOnUse" x1="338.7496" y1="141.8163" x2="347.0276" y2="141.8163">
				<stop  offset="0" style="stop-color:#282560"/>
				<stop  offset="0.3355" style="stop-color:#362B70"/>
			</linearGradient>
			<path style="fill:url(#SVGID_00000025439769833657205450000000360812523866585249_);" d="M338.75,138.29
				c0-0.41,0.2-0.61,0.61-0.61h7.05c0.41,0,0.61,0.2,0.61,0.61v7.05c0,0.41-0.21,0.61-0.61,0.61h-7.05c-0.41,0-0.61-0.2-0.61-0.61
				V138.29z"/>
		</g>
		<g>
			<g>
				
					<linearGradient id="SVGID_00000096773772810200898250000014728046837136354959_" gradientUnits="userSpaceOnUse" x1="210.6604" y1="129.9815" x2="218.1415" y2="129.9815">
					<stop  offset="0" style="stop-color:#282560"/>
					<stop  offset="0.3355" style="stop-color:#362B70"/>
					<stop  offset="0.4892" style="stop-color:#7D3C83"/>
					<stop  offset="0.6675" style="stop-color:#CB4E99"/>
					<stop  offset="0.746" style="stop-color:#D36DAB"/>
					<stop  offset="0.9169" style="stop-color:#E8BDD9"/>
					<stop  offset="0.9985" style="stop-color:#F3E5F0"/>
				</linearGradient>
				<path style="fill:url(#SVGID_00000096773772810200898250000014728046837136354959_);" d="M210.66,114.62
					c0-0.41,0.2-0.61,0.61-0.61h6.25c0.41,0,0.61,0.2,0.61,0.61v30.72c0,0.41-0.21,0.61-0.61,0.61h-6.25c-0.41,0-0.61-0.2-0.61-0.61
					V114.62z"/>
			</g>
		</g>
		<g>
			<g>
				
					<linearGradient id="SVGID_00000106834449639791687190000016091685167799452807_" gradientUnits="userSpaceOnUse" x1="211.0306" y1="105.9758" x2="218.5117" y2="105.9758">
					<stop  offset="0" style="stop-color:#282560"/>
					<stop  offset="0.3355" style="stop-color:#362B70"/>
					<stop  offset="0.4892" style="stop-color:#7D3C83"/>
					<stop  offset="0.6675" style="stop-color:#CB4E99"/>
					<stop  offset="0.746" style="stop-color:#D36DAB"/>
					<stop  offset="0.9169" style="stop-color:#E8BDD9"/>
					<stop  offset="0.9985" style="stop-color:#F3E5F0"/>
				</linearGradient>
				<path style="fill:url(#SVGID_00000106834449639791687190000016091685167799452807_);" d="M211.03,102.14
					c0-0.1,0.2-0.15,0.61-0.15h6.25c0.41,0,0.61,0.05,0.61,0.15v7.67c0,0.1-0.21,0.15-0.61,0.15h-6.25c-0.41,0-0.61-0.05-0.61-0.15
					V102.14z"/>
			</g>
		</g>
	</g>
	<g>
		<g>
			
				<linearGradient id="SVGID_00000009550960211365130770000002385976420915999933_" gradientUnits="userSpaceOnUse" x1="89.603" y1="123.9729" x2="347.0276" y2="123.9729">
				<stop  offset="0" style="stop-color:#1E0A3C"/>
				<stop  offset="0.9863" style="stop-color:#BD4695"/>
			</linearGradient>
			<path style="fill:url(#SVGID_00000009550960211365130770000002385976420915999933_);" d="M132.79,115.66
				c0-1.76,0.25-3.41,0.74-4.97c0.25-0.9,0.58-1.67,1.01-2.3c0.43-0.63,0.87-1.22,1.32-1.75c1.27-1.47,2.78-2.61,4.54-3.43
				c1.76-0.82,3.64-1.23,5.64-1.23h16.25c0.41,0,0.61,0.2,0.61,0.61v6.74c0,0.41-0.2,0.61-0.61,0.61H146.4
				c-1.59,0.33-2.78,1.16-3.56,2.48c-0.78,1.33-1.16,3.06-1.16,5.18v15.51c0.12,1.43,0.58,2.57,1.38,3.4
				c0.8,0.84,1.91,1.32,3.34,1.44h15.88c0.41,0,0.61,0.21,0.61,0.61v6.75c0,0.41-0.2,0.61-0.61,0.61h-15.7
				c-1.23,0-2.31-0.11-3.25-0.34c-0.94-0.22-1.76-0.48-2.45-0.77c-1.55-0.57-2.94-1.5-4.17-2.79c-1.23-1.29-2.23-2.83-3-4.63
				c-0.21-0.45-0.41-1.05-0.61-1.81c-0.2-0.76-0.31-1.69-0.31-2.79V115.66z"/>
			
				<linearGradient id="SVGID_00000035520408523959345650000012355391793081663662_" gradientUnits="userSpaceOnUse" x1="89.603" y1="123.9729" x2="347.0276" y2="123.9729">
				<stop  offset="0" style="stop-color:#1E0A3C"/>
				<stop  offset="0.9863" style="stop-color:#BD4695"/>
			</linearGradient>
			<path style="fill:url(#SVGID_00000035520408523959345650000012355391793081663662_);" d="M167.92,102.6
				c0-0.41,0.2-0.61,0.61-0.61h7.66c0.41,0,0.61,0.2,0.61,0.61v16.68c0,0.41,0.2,0.61,0.61,0.61h14.53c0.41,0,0.61-0.2,0.61-0.61
				V102.6c0-0.41,0.2-0.61,0.61-0.61h7.66c0.41,0,0.61,0.2,0.61,0.61v42.74c0,0.41-0.2,0.61-0.61,0.61h-7.66
				c-0.41,0-0.61-0.2-0.61-0.61v-16.86c0-0.41-0.2-0.61-0.61-0.61h-14.53c-0.41,0-0.61,0.21-0.61,0.61v16.86
				c0,0.41-0.2,0.61-0.61,0.61h-7.66c-0.41,0-0.61-0.2-0.61-0.61V102.6z"/>
			
				<linearGradient id="SVGID_00000103233650282256456160000017886582643848823462_" gradientUnits="userSpaceOnUse" x1="89.603" y1="123.9729" x2="347.0276" y2="123.9729">
				<stop  offset="0" style="stop-color:#1E0A3C"/>
				<stop  offset="0.9863" style="stop-color:#BD4695"/>
			</linearGradient>
			<path style="fill:url(#SVGID_00000103233650282256456160000017886582643848823462_);" d="M223.78,111.37
				c0-2.78,0.76-5.04,2.27-6.78c1.51-1.74,3.7-2.61,6.56-2.61h20.79c0.53,0,0.8,0.2,0.8,0.61v6.74c0,0.41-0.21,0.61-0.61,0.61
				h-20.29c-0.41,0-0.61,0.23-0.61,0.67v8.34c0,0.41,0.2,0.61,0.61,0.61h18.82c0.41,0,0.61,0.21,0.61,0.61v7.05
				c0,0.41-0.2,0.61-0.61,0.61h-18.82c-0.41,0-0.61,0.21-0.61,0.61v8.89c0,0.41,0.2,0.61,0.61,0.61h20.29
				c0.41,0,0.61,0.21,0.61,0.61v6.75c0,0.41-0.21,0.61-0.61,0.61h-23.73c-0.74,0-1.47-0.19-2.21-0.58c-0.74-0.39-1.39-0.89-1.96-1.5
				c-0.57-0.61-1.03-1.3-1.38-2.05c-0.35-0.76-0.52-1.52-0.52-2.3V111.37z"/>
			
				<linearGradient id="SVGID_00000021805184056315535410000016380424794010117009_" gradientUnits="userSpaceOnUse" x1="89.603" y1="123.9729" x2="347.0276" y2="123.9729">
				<stop  offset="0" style="stop-color:#1E0A3C"/>
				<stop  offset="0.9863" style="stop-color:#BD4695"/>
			</linearGradient>
			<path style="fill:url(#SVGID_00000021805184056315535410000016380424794010117009_);" d="M277.8,136.88
				c0.12,0.45,0.22,0.75,0.31,0.89c0.08,0.14,0.22,0.21,0.43,0.21c0.2,0,0.43-0.37,0.67-1.1l10.55-34.28
				c0.12-0.41,0.39-0.61,0.8-0.61h7.97c0.33,0,0.49,0.12,0.49,0.37l-12.45,39.98c-0.49,1.59-1.39,2.6-2.7,3.01
				c-1.31,0.41-3.09,0.61-5.33,0.61c-2.33,0-4.16-0.2-5.49-0.61c-1.33-0.41-2.24-1.41-2.73-3.01L258,102.36
				c0-0.25,0.14-0.37,0.43-0.37h8.03c0.41,0,0.67,0.18,0.8,0.55L277.8,136.88z"/>
			
				<linearGradient id="SVGID_00000079479459665461913050000013723029957953099436_" gradientUnits="userSpaceOnUse" x1="89.603" y1="123.9729" x2="347.0276" y2="123.9729">
				<stop  offset="0" style="stop-color:#1E0A3C"/>
				<stop  offset="0.9863" style="stop-color:#BD4695"/>
			</linearGradient>
			<path style="fill:url(#SVGID_00000079479459665461913050000013723029957953099436_);" d="M305.46,105.61
				c0.49-1.59,1.39-2.59,2.7-3c1.31-0.41,3.09-0.61,5.33-0.61c2.33,0,4.16,0.2,5.49,0.61c1.33,0.41,2.24,1.41,2.73,3l12.33,39.98
				c0,0.24-0.14,0.37-0.43,0.37h-8.03c-0.41,0-0.67-0.18-0.8-0.55l-3.25-10.61c-0.12-0.41-0.39-0.61-0.8-0.61h-14.41
				c-0.41,0-0.67,0.22-0.8,0.67l-3.25,10.49c-0.12,0.41-0.39,0.61-0.8,0.61h-7.97c-0.33,0-0.49-0.12-0.49-0.37L305.46,105.61z
				 M314.23,111.07c-0.12-0.45-0.22-0.74-0.31-0.89c-0.08-0.14-0.22-0.22-0.43-0.22s-0.43,0.37-0.67,1.1l-4.29,13.98
				c0,0.08-0.01,0.14-0.03,0.18c-0.02,0.04-0.03,0.08-0.03,0.12c0,0.29,0.16,0.43,0.49,0.43h9.14c0.33,0,0.49-0.14,0.49-0.43
				c0-0.04-0.01-0.08-0.03-0.12c-0.02-0.04-0.03-0.1-0.03-0.18L314.23,111.07z"/>
		</g>
		<g>
			
				<linearGradient id="SVGID_00000173841426659853482080000018012918417955669940_" gradientUnits="userSpaceOnUse" x1="89.603" y1="123.9729" x2="347.0276" y2="123.9729">
				<stop  offset="0" style="stop-color:#1E0A3C"/>
				<stop  offset="0.9863" style="stop-color:#BD4695"/>
			</linearGradient>
			<path style="fill:url(#SVGID_00000173841426659853482080000018012918417955669940_);" d="M118.3,105.61
				c-0.49-1.59-1.4-2.6-2.73-3c-1.33-0.41-3.16-0.61-5.49-0.61c-2.25,0-4.03,0.21-5.33,0.61c-1.31,0.41-2.21,1.41-2.7,3L89.6,145.59
				c0,0.25,0.16,0.37,0.49,0.37h7.97c0.41,0,0.67-0.2,0.8-0.61l10.55-34.28c0.25-0.74,0.47-1.1,0.67-1.1c0.2,0,0.35,0.07,0.43,0.22
				c0.08,0.14,0.18,0.44,0.31,0.89l10.55,34.34c0.12,0.37,0.39,0.55,0.8,0.55h8.03c0.29,0,0.43-0.12,0.43-0.37L118.3,105.61z"/>
		</g>
		<g>
			
				<linearGradient id="SVGID_00000181799616494401228920000000848977733712489639_" gradientUnits="userSpaceOnUse" x1="89.603" y1="123.9729" x2="347.0276" y2="123.9729">
				<stop  offset="0" style="stop-color:#1E0A3C"/>
				<stop  offset="0.9863" style="stop-color:#BD4695"/>
			</linearGradient>
			<path style="fill:url(#SVGID_00000181799616494401228920000000848977733712489639_);" d="M338.75,138.29
				c0-0.41,0.2-0.61,0.61-0.61h7.05c0.41,0,0.61,0.2,0.61,0.61v7.05c0,0.41-0.21,0.61-0.61,0.61h-7.05c-0.41,0-0.61-0.2-0.61-0.61
				V138.29z"/>
		</g>
		<g>
			<g>
				
					<linearGradient id="SVGID_00000071530780338943244880000000420186142719312024_" gradientUnits="userSpaceOnUse" x1="89.603" y1="123.9729" x2="347.0276" y2="123.9729">
					<stop  offset="0" style="stop-color:#1E0A3C"/>
					<stop  offset="0.9863" style="stop-color:#BD4695"/>
				</linearGradient>
				<path style="fill:url(#SVGID_00000071530780338943244880000000420186142719312024_);" d="M210.66,114.62
					c0-0.41,0.2-0.61,0.61-0.61h6.25c0.41,0,0.61,0.2,0.61,0.61v30.72c0,0.41-0.21,0.61-0.61,0.61h-6.25c-0.41,0-0.61-0.2-0.61-0.61
					V114.62z"/>
			</g>
			<g>
				
					<linearGradient id="SVGID_00000064346766405497355120000007651026139632097167_" gradientUnits="userSpaceOnUse" x1="89.603" y1="123.9729" x2="347.0276" y2="123.9729">
					<stop  offset="0" style="stop-color:#1E0A3C"/>
					<stop  offset="0.9863" style="stop-color:#BD4695"/>
				</linearGradient>
				<path style="fill:url(#SVGID_00000064346766405497355120000007651026139632097167_);" d="M210.66,114.62
					c0-0.41,0.2-0.61,0.61-0.61h6.25c0.41,0,0.61,0.2,0.61,0.61v30.72c0,0.41-0.21,0.61-0.61,0.61h-6.25c-0.41,0-0.61-0.2-0.61-0.61
					V114.62z"/>
			</g>
			<g>
				
					<linearGradient id="SVGID_00000141434769924486139580000014897886429083966850_" gradientUnits="userSpaceOnUse" x1="89.603" y1="123.9729" x2="347.0276" y2="123.9729">
					<stop  offset="0" style="stop-color:#1E0A3C"/>
					<stop  offset="0.9863" style="stop-color:#BD4695"/>
				</linearGradient>
				<path style="fill:url(#SVGID_00000141434769924486139580000014897886429083966850_);" d="M210.66,114.62
					c0-0.41,0.2-0.61,0.61-0.61h6.25c0.41,0,0.61,0.2,0.61,0.61v30.72c0,0.41-0.21,0.61-0.61,0.61h-6.25c-0.41,0-0.61-0.2-0.61-0.61
					V114.62z"/>
			</g>
		</g>
		<g>
			<g>
				
					<linearGradient id="SVGID_00000164495769724100043650000008826316392977432731_" gradientUnits="userSpaceOnUse" x1="89.603" y1="123.9729" x2="347.0276" y2="123.9729">
					<stop  offset="0" style="stop-color:#1E0A3C"/>
					<stop  offset="0.9863" style="stop-color:#BD4695"/>
				</linearGradient>
				<path style="fill:url(#SVGID_00000164495769724100043650000008826316392977432731_);" d="M211.03,102.14
					c0-0.1,0.2-0.15,0.61-0.15h6.25c0.41,0,0.61,0.05,0.61,0.15v7.67c0,0.1-0.21,0.15-0.61,0.15h-6.25c-0.41,0-0.61-0.05-0.61-0.15
					V102.14z"/>
			</g>
			<g>
				
					<linearGradient id="SVGID_00000127013939812880946310000018262760095675649674_" gradientUnits="userSpaceOnUse" x1="89.603" y1="123.9729" x2="347.0276" y2="123.9729">
					<stop  offset="0" style="stop-color:#1E0A3C"/>
					<stop  offset="0.9863" style="stop-color:#BD4695"/>
				</linearGradient>
				<path style="fill:url(#SVGID_00000127013939812880946310000018262760095675649674_);" d="M211.03,102.14
					c0-0.1,0.2-0.15,0.61-0.15h6.25c0.41,0,0.61,0.05,0.61,0.15v7.67c0,0.1-0.21,0.15-0.61,0.15h-6.25c-0.41,0-0.61-0.05-0.61-0.15
					V102.14z"/>
			</g>
			<g>
				
					<linearGradient id="SVGID_00000013160716991915543340000017372324755529164713_" gradientUnits="userSpaceOnUse" x1="89.603" y1="123.9729" x2="347.0276" y2="123.9729">
					<stop  offset="0" style="stop-color:#1E0A3C"/>
					<stop  offset="0.9863" style="stop-color:#BD4695"/>
				</linearGradient>
				<path style="fill:url(#SVGID_00000013160716991915543340000017372324755529164713_);" d="M211.03,102.14
					c0-0.1,0.2-0.15,0.61-0.15h6.25c0.41,0,0.61,0.05,0.61,0.15v7.67c0,0.1-0.21,0.15-0.61,0.15h-6.25c-0.41,0-0.61-0.05-0.61-0.15
					V102.14z"/>
			</g>
		</g>
	</g>
</g>
</svg>
