<svg xmlns="http://www.w3.org/2000/svg" version="1.1" xmlns:xlink="http://www.w3.org/1999/xlink" width="512" height="512" x="0" y="0" viewBox="0 0 682.667 682.667" style="enable-background:new 0 0 512 512" xml:space="preserve"><g><defs><clipPath id="a" clipPathUnits="userSpaceOnUse"><path d="M0 512h512V0H0Z" fill="#a20066" opacity="1" data-original="#000000"></path></clipPath></defs><g clip-path="url(#a)" transform="matrix(1.33333 0 0 -1.33333 0 682.667)"><path d="M0 0c-11.046 0-20 8.954-20 20s8.954 20 20 20 20-8.954 20-20S11.046 0 0 0" style="fill-opacity:1;fill-rule:nonzero;stroke:none" transform="translate(255 111)" fill="#a20066" data-original="#000000" opacity="1"></path><path d="M0 0v28.826c0 8.242 5.797 15.367 13.936 17.154 29.42 6.458 51.219 32.932 50.016 64.223-1.26 32.788-28.288 59.505-61.459 60.75C-33.989 172.323-64 143.757-64 108" style="stroke-width:40;stroke-linecap:round;stroke-linejoin:miter;stroke-miterlimit:10;stroke-dasharray:none;stroke-opacity:1" transform="translate(255 201)" fill="none" stroke="#a20066" stroke-width="40" stroke-linecap="round" stroke-linejoin="miter" stroke-miterlimit="10" stroke-dasharray="none" stroke-opacity="" data-original="#000000" opacity="1"></path><path d="M0 0c-35.623-21.578-77.41-34-122.1-34-130.338 0-236 105.661-236 236 0 130.34 105.662 236 236 236 130.339 0 236-105.66 236-236 0-48.467-14.943-93.521-40-131" style="stroke-width:40;stroke-linecap:round;stroke-linejoin:round;stroke-miterlimit:10;stroke-dasharray:none;stroke-opacity:1" transform="translate(378.1 54)" fill="none" stroke="#a20066" stroke-width="40" stroke-linecap="round" stroke-linejoin="round" stroke-miterlimit="10" stroke-dasharray="none" stroke-opacity="" data-original="#000000" opacity="1"></path></g></g></svg>