<svg xmlns="http://www.w3.org/2000/svg" version="1.1" xmlns:xlink="http://www.w3.org/1999/xlink" width="512" height="512" x="0" y="0" viewBox="0 0 682.667 682.667" style="enable-background:new 0 0 512 512" xml:space="preserve" class=""><g><defs><clipPath id="b" clipPathUnits="userSpaceOnUse"><path d="M0 512h512V0H0Z" fill="#a20066" opacity="1" data-original="#000000"></path></clipPath></defs><mask id="a"><rect width="100%" height="100%" fill="#ffffff" opacity="1" data-original="#ffffff"></rect></mask><g mask="url(#a)"><g clip-path="url(#b)" transform="matrix(1.33333 0 0 -1.33333 0 682.667)"><path d="M0 0c42.96 37.21 99 59.72 160.3 59.72 135.309 0 245-109.69 245-245s-109.691-245-245-245c-135.31 0-245 109.69-245 245 0 63.22 23.95 120.86 63.269 164.31" style="stroke-width:15;stroke-linecap:round;stroke-linejoin:round;stroke-miterlimit:10;stroke-dasharray:none;stroke-opacity:1" transform="translate(96.7 442.55)" fill="none" stroke="#a20066" stroke-width="15" stroke-linecap="round" stroke-linejoin="round" stroke-miterlimit="10" stroke-dasharray="none" stroke-opacity="" data-original="#000000" opacity="1"></path><path d="M0 0c12.98 14.87 25.39 35.28 25.39 59.49 0 42.67-38.579 74.9-96.69 74.9-61.29 0-89.44-36.32-89.44-60.83 0-17.71 14.98-25.88 27.24-25.88 24.51 0 14.53 34.96 60.83 34.96 22.7 0 40.86-9.99 40.86-30.87 0-24.52-25.419-38.59-40.4-51.3-13.17-11.35-30.42-29.97-30.42-69.01 0-23.61 6.36-30.42 24.97-30.42 22.24 0 26.78 9.99 26.78 18.62 0 23.61.46 37.22 25.43 56.75 1.05.82 2.3 1.79 3.7 2.92m-20.499-144.567c0-18.614-15.436-34.958-34.957-34.958-19.523 0-34.504 16.344-34.504 34.958 0 19.067 15.436 34.956 34.504 34.956 19.066 0 34.957-15.889 34.957-34.956z" style="stroke-width:15;stroke-linecap:round;stroke-linejoin:round;stroke-miterlimit:10;stroke-dasharray:none;stroke-opacity:1" transform="translate(324.67 290.17)" fill="none" stroke="#a20066" stroke-width="15" stroke-linecap="round" stroke-linejoin="round" stroke-miterlimit="10" stroke-dasharray="none" stroke-opacity="" data-original="#000000" opacity="1"></path></g></g></g></svg>